{
  "accessors": [
    {
      "bufferView": 2,
      "componentType": 5126,
      "count": 12445,
      "max": [
        0.23621033132076263,
        0.2995275557041168,
        0.29952752590179443
      ],
      "min": [
        -0.23621033132076263,
        -0.2995274066925049,
        -0.2995275855064392
      ],
      "type": "VEC3"
    },
    {
      "bufferView": 2,
      "byteOffset": 149340,
      "componentType": 5126,
      "count": 12445,
      "max": [
        1.0,
        1.0,
        1.0
      ],
      "min": [
        -1.0,
        -1.0,
        -1.0
      ],
      "type": "VEC3"
    },
    {
      "bufferView": 1,
      "componentType": 5126,
      "count": 12445,
      "max": [
        -0.2800239622592926,
        1.0178165435791016
      ],
      "min": [
        -0.5374347567558289,
        0.05937141180038452
      ],
      "type": "VEC2"
    },
    {
      "bufferView": 0,
      "componentType": 5125,
      "count": 70656,
      "type": "SCALAR"
    },
    {
      "bufferView": 2,
      "byteOffset": 298680,
      "componentType": 5126,
      "count": 4810,
      "max": [
        0.18446168303489685,
        0.30218735337257385,
        0.30218732357025146
      ],
      "min": [
        -0.18446168303489685,
        -0.3021872043609619,
        -0.30218738317489624
      ],
      "type": "VEC3"
    },
    {
      "bufferView": 2,
      "byteOffset": 356400,
      "componentType": 5126,
      "count": 4810,
      "max": [
        1.0,
        1.0,
        1.0
      ],
      "min": [
        -1.0,
        -1.0,
        -1.0
      ],
      "type": "VEC3"
    },
    {
      "bufferView": 1,
      "byteOffset": 99560,
      "componentType": 5126,
      "count": 4810,
      "max": [
        -0.36540284752845764,
        1.0178165435791016
      ],
      "min": [
        -0.3833343982696533,
        0.05937141180038452
      ],
      "type": "VEC2"
    },
    {
      "bufferView": 0,
      "byteOffset": 282624,
      "componentType": 5125,
      "count": 27648,
      "type": "SCALAR"
    },
    {
      "bufferView": 2,
      "byteOffset": 414120,
      "componentType": 5126,
      "count": 1525,
      "max": [
        0.20108702778816223,
        0.2943631410598755,
        0.2943630814552307
      ],
      "min": [
        -0.20108701288700104,
        -0.29436302185058594,
        -0.2943631708621979
      ],
      "type": "VEC3"
    },
    {
      "bufferView": 2,
      "byteOffset": 432420,
      "componentType": 5126,
      "count": 1525,
      "max": [
        1.0,
        0.8187183141708374,
        0.8187283277511597
      ],
      "min": [
        -1.0,
        -0.8187283277511597,
        -0.8187283277511597
      ],
      "type": "VEC3"
    },
    {
      "bufferView": 1,
      "byteOffset": 138040,
      "componentType": 5126,
      "count": 1525,
      "max": [
        1.2321809530258179,
        1.229720115661621
      ],
      "min": [
        -0.19280828535556793,
        -0.19526898860931396
      ],
      "type": "VEC2"
    },
    {
      "bufferView": 0,
      "byteOffset": 393216,
      "componentType": 5125,
      "count": 6912,
      "type": "SCALAR"
    },
    {
      "bufferView": 2,
      "byteOffset": 450720,
      "componentType": 5126,
      "count": 65532,
      "max": [
        0.2376631200313568,
        0.29727622866630554,
        0.3107508718967438
      ],
      "min": [
        -0.23766310513019562,
        -0.2972761392593384,
        -0.25501853227615356
      ],
      "type": "VEC3"
    },
    {
      "bufferView": 2,
      "byteOffset": 1237104,
      "componentType": 5126,
      "count": 65532,
      "max": [
        1.0,
        1.0,
        1.0
      ],
      "min": [
        -1.0,
        -1.0,
        -1.0
      ],
      "type": "VEC3"
    },
    {
      "bufferView": 1,
      "byteOffset": 150240,
      "componentType": 5126,
      "count": 65532,
      "max": [
        1.0333178043365479,
        -0.13380534946918488
      ],
      "min": [
        -0.22157087922096252,
        -0.8544468879699707
      ],
      "type": "VEC2"
    },
    {
      "bufferView": 0,
      "byteOffset": 420864,
      "componentType": 5125,
      "count": 329157,
      "type": "SCALAR"
    },
    {
      "bufferView": 2,
      "byteOffset": 2023488,
      "componentType": 5126,
      "count": 56713,
      "max": [
        0.2376631200313568,
        0.29727625846862793,
        0.2537645995616913
      ],
      "min": [
        -0.23766310513019562,
        -0.2972761392593384,
        -0.3107508420944214
      ],
      "type": "VEC3"
    },
    {
      "bufferView": 2,
      "byteOffset": 2704044,
      "componentType": 5126,
      "count": 56713,
      "max": [
        1.0,
        1.0,
        1.0
      ],
      "min": [
        -1.0,
        -1.0,
        -1.0
      ],
      "type": "VEC3"
    },
    {
      "bufferView": 1,
      "byteOffset": 674496,
      "componentType": 5126,
      "count": 56713,
      "max": [
        1.0299519300460815,
        -0.13380534946918488
      ],
      "min": [
        -0.22157087922096252,
        -0.8544468879699707
      ],
      "type": "VEC2"
    },
    {
      "bufferView": 0,
      "byteOffset": 1737492,
      "componentType": 5125,
      "count": 283323,
      "type": "SCALAR"
    }
  ],
  "asset": {
    "extras": {
      "author": "Patradarsh Productions (https://sketchfab.com/patisawesome200)",
      "license": "CC-BY-NC-4.0 (http://creativecommons.org/licenses/by-nc/4.0/)",
      "source": "https://sketchfab.com/3d-models/bassdrum001-eee7e3d6e6e6413081a1c65213e1c505",
      "title": "BassDrum001"
    },
    "generator": "Sketchfab-12.66.0",
    "version": "2.0"
  },
  "bufferViews": [
    {
      "buffer": 0,
      "byteLength": 2870784,
      "name": "floatBufferViews",
      "target": 34963
    },
    {
      "buffer": 0,
      "byteLength": 1128200,
      "byteOffset": 2870784,
      "byteStride": 8,
      "name": "floatBufferViews",
      "target": 34962
    },
    {
      "buffer": 0,
      "byteLength": 3384600,
      "byteOffset": 3998984,
      "byteStride": 12,
      "name": "floatBufferViews",
      "target": 34962
    }
  ],
  "buffers": [
    {
      "byteLength": 7383584,
      "uri": "scene.bin"
    }
  ],
  "images": [
    {
      "uri": "textures/BassDrum001_Head_baseColor.jpeg"
    }
  ],
  "materials": [
    {
      "doubleSided": true,
      "name": "BassDrum001_PlasticBlack",
      "pbrMetallicRoughness": {
        "baseColorFactor": [
          0.0,
          0.0,
          0.0,
          1.0
        ],
        "metallicFactor": 0.0,
        "roughnessFactor": 0.3
      }
    },
    {
      "doubleSided": true,
      "name": "BassDrum001_MetalDull",
      "pbrMetallicRoughness": {
        "baseColorFactor": [
          0.8,
          0.8,
          0.8,
          1.0
        ],
        "roughnessFactor": 0.2
      }
    },
    {
      "doubleSided": true,
      "name": "BassDrum001_Head",
      "pbrMetallicRoughness": {
        "baseColorTexture": {
          "index": 0
        },
        "metallicFactor": 0.0,
        "roughnessFactor": 0.1
      }
    },
    {
      "doubleSided": true,
      "name": "BassDrum001_MetalShiny",
      "pbrMetallicRoughness": {
        "baseColorFactor": [
          0.8,
          0.8,
          0.8,
          1.0
        ],
        "roughnessFactor": 0.0833333
      }
    }
  ],
  "meshes": [
    {
      "name": "Object_0",
      "primitives": [
        {
          "attributes": {
            "NORMAL": 1,
            "POSITION": 0,
            "TEXCOORD_0": 2
          },
          "indices": 3,
          "material": 0,
          "mode": 4
        }
      ]
    },
    {
      "name": "Object_1",
      "primitives": [
        {
          "attributes": {
            "NORMAL": 5,
            "POSITION": 4,
            "TEXCOORD_0": 6
          },
          "indices": 7,
          "material": 1,
          "mode": 4
        }
      ]
    },
    {
      "name": "Object_2",
      "primitives": [
        {
          "attributes": {
            "NORMAL": 9,
            "POSITION": 8,
            "TEXCOORD_0": 10
          },
          "indices": 11,
          "material": 2,
          "mode": 4
        }
      ]
    },
    {
      "name": "Object_3",
      "primitives": [
        {
          "attributes": {
            "NORMAL": 13,
            "POSITION": 12,
            "TEXCOORD_0": 14
          },
          "indices": 15,
          "material": 3,
          "mode": 4
        }
      ]
    },
    {
      "name": "Object_4",
      "primitives": [
        {
          "attributes": {
            "NORMAL": 17,
            "POSITION": 16,
            "TEXCOORD_0": 18
          },
          "indices": 19,
          "material": 3,
          "mode": 4
        }
      ]
    }
  ],
  "nodes": [
    {
      "children": [
        1
      ],
      "matrix": [
        1.0,
        0.0,
        0.0,
        0.0,
        0.0,
        2.220446049250313e-16,
        -1.0,
        0.0,
        0.0,
        1.0,
        2.220446049250313e-16,
        0.0,
        0.0,
        0.0,
        0.0,
        1.0
      ],
      "name": "Sketchfab_model"
    },
    {
      "children": [
        2
      ],
      "name": "root"
    },
    {
      "children": [
        3
      ],
      "matrix": [
        1.0,
        0.0,
        0.0,
        0.0,
        0.0,
        2.220446049250313e-16,
        1.0,
        0.0,
        0.0,
        -1.0,
        2.220446049250313e-16,
        0.0,
        0.0,
        0.0,
        0.0,
        1.0
      ],
      "name": "GLTF_SceneRootNode"
    },
    {
      "children": [
        4,
        5,
        6,
        7,
        8
      ],
      "matrix": [
        1.0,
        0.0,
        0.0,
        0.0,
        0.0,
        1.0,
        0.0,
        0.0,
        0.0,
        0.0,
        1.0,
        0.0,
        0.0,
        0.3021807074546814,
        0.0,
        1.0
      ],
      "name": "BassDrum001_8"
    },
    {
      "mesh": 0,
      "name": "Object_4"
    },
    {
      "mesh": 1,
      "name": "Object_5"
    },
    {
      "mesh": 2,
      "name": "Object_6"
    },
    {
      "mesh": 3,
      "name": "Object_7"
    },
    {
      "mesh": 4,
      "name": "Object_8"
    }
  ],
  "samplers": [
    {
      "magFilter": 9729,
      "minFilter": 9987,
      "wrapS": 33071,
      "wrapT": 33071
    }
  ],
  "scene": 0,
  "scenes": [
    {
      "name": "Sketchfab_Scene",
      "nodes": [
        0
      ]
    }
  ],
  "textures": [
    {
      "sampler": 0,
      "source": 0
    }
  ]
}
